<?xml version="1.0" encoding="UTF-8" standalone="no"?>
<!DOCTYPE svg PUBLIC "-//W3C//DTD SVG 1.1//EN" "http://www.w3.org/Graphics/SVG/1.1/DTD/svg11.dtd">
<svg width="100%" height="100%" viewBox="0 0 93 91" version="1.1" xmlns="http://www.w3.org/2000/svg" xmlns:xlink="http://www.w3.org/1999/xlink" xml:space="preserve" xmlns:serif="http://www.serif.com/" style="fill-rule:evenodd;clip-rule:evenodd;stroke-linejoin:round;stroke-miterlimit:2;">
    <g transform="matrix(1,0,0,1,-2.08721,-4.96623)">
        <g>
            <g>
                <path d="M57.601,8.306C64.293,4.814 68.773,10.426 70.389,13C72.25,15.963 74.202,21.743 72.011,25.323C71.608,25.181 71.137,24.982 70.675,24.787C68.659,23.935 66.151,22.877 64.724,24.497C63.81,25.535 63.979,27.479 64.293,29.913C64.363,30.452 64.429,30.961 64.433,31.225C64.447,32.363 64.443,33.483 64.304,34.583C64.113,34.779 63.992,35.045 63.987,35.34L63.965,36.403C63.952,36.965 64.361,37.448 64.918,37.529C64.972,37.537 65.025,37.54 65.078,37.54C65.573,37.54 66.017,37.209 66.151,36.719C66.659,34.848 66.68,33.04 66.658,31.198C66.654,30.804 66.584,30.259 66.502,29.626C66.389,28.757 66.09,26.448 66.395,25.966C66.764,25.551 68.897,26.449 69.809,26.835C70.71,27.216 71.562,27.576 72.283,27.698C72.685,27.767 73.084,27.613 73.337,27.299C76.907,22.863 74.658,15.609 72.275,11.815C68.224,5.365 62.354,3.315 56.573,6.331C56.028,6.616 55.817,7.288 56.101,7.832C56.383,8.378 57.057,8.588 57.601,8.306Z" style="fill-rule:nonzero;"/>
                <path d="M66.285,19.52C66.877,19.357 67.225,18.745 67.062,18.152C66.898,17.56 66.291,17.21 65.693,17.375C65.282,17.488 64.846,17.589 64.403,17.692C63.123,17.99 61.672,18.327 60.461,19.03C60.08,19.251 59.866,19.675 59.913,20.112L59.986,20.792C60.048,21.363 60.53,21.786 61.091,21.786C61.13,21.786 61.171,21.784 61.211,21.78C61.792,21.718 62.22,21.219 62.204,20.645C63.018,20.299 63.975,20.077 64.906,19.86C65.381,19.75 65.845,19.641 66.285,19.52Z" style="fill-rule:nonzero;"/>
                <path d="M93.539,26.933C90.793,24.412 85.595,25.659 81.8,26.568C81.556,26.627 81.32,26.683 81.093,26.736C81.017,26.673 80.932,26.619 80.837,26.576C80.276,26.326 79.617,26.575 79.365,27.135L79.145,27.623C78.974,28.002 79.029,28.445 79.288,28.771C79.546,29.097 79.965,29.251 80.372,29.172C80.924,29.065 81.586,28.907 82.318,28.731C85.252,28.029 90.159,26.851 92.033,28.571C93.565,29.977 92.225,33.655 91.425,35.853C91.265,36.292 91.118,36.696 91.003,37.048C90.244,39.35 89.607,41.713 88.989,43.997C88.398,46.185 87.787,48.449 87.079,50.62C87.078,50.623 87.079,50.626 87.078,50.63C87.036,50.643 86.991,50.649 86.95,50.663C87.226,49.98 87.46,49.27 87.587,48.515C87.663,48.06 87.451,47.606 87.054,47.372C86.658,47.138 86.156,47.172 85.796,47.46C85.485,47.708 85.2,47.968 84.937,48.236C85.85,45.843 86.65,43.42 85.675,41.489C85.121,40.392 84.065,39.625 82.534,39.207C81.952,39.048 81.336,39.39 81.17,39.979C80.503,42.351 79.444,45.04 78.324,47.887C78.113,48.423 77.902,48.965 77.691,49.506C76.192,49.489 74.955,49.708 73.69,49.965C73.975,48.9 74.194,47.825 74.408,46.774C74.613,45.769 74.825,44.731 75.087,43.745C75.952,40.497 76.903,37.053 78.191,33.775C78.267,33.58 78.344,33.358 78.425,33.121C78.654,32.458 79.035,31.35 79.489,31.179C80.064,30.962 80.354,30.32 80.137,29.745C79.92,29.169 79.279,28.88 78.703,29.096C77.269,29.636 76.721,31.232 76.319,32.397C76.249,32.601 76.183,32.793 76.117,32.962C74.787,36.349 73.815,39.863 72.934,43.173C72.655,44.222 72.436,45.294 72.225,46.33C71.889,47.981 71.571,49.54 71.026,51.033C70.89,51.406 70.964,51.824 71.217,52.129C71.431,52.384 71.745,52.528 72.071,52.528C72.133,52.528 72.197,52.522 72.26,52.511C72.835,52.411 73.37,52.302 73.889,52.196C74.903,51.989 75.822,51.807 76.835,51.745C76.097,53.717 75.408,55.687 74.896,57.592C74.755,58.113 75.009,58.659 75.497,58.888C75.986,59.12 76.568,58.963 76.879,58.524L77.269,57.973C77.492,57.659 77.528,57.267 77.4,56.932C78.208,54.258 79.317,51.44 80.393,48.703C81.357,46.254 82.275,43.92 82.957,41.761C83.299,41.963 83.539,42.206 83.685,42.494C84.298,43.707 83.408,46.015 82.622,48.05C81.848,50.054 81.116,51.948 81.284,53.614C81.329,54.062 81.64,54.439 82.072,54.569C82.504,54.699 82.971,54.553 83.256,54.204C83.468,53.943 83.666,53.68 83.857,53.416C83.865,53.428 83.873,53.438 83.881,53.449C84.124,53.771 84.52,53.939 84.925,53.879C85.656,53.775 86.277,53.45 86.823,53.163C86.836,53.156 86.849,53.149 86.862,53.142C86.788,53.538 86.932,53.954 87.26,54.216C87.668,54.542 88.243,54.539 88.65,54.217C88.18,55.598 87.44,56.854 86.443,57.959C86.031,58.415 86.067,59.119 86.524,59.53C86.737,59.722 87.003,59.817 87.269,59.817C87.573,59.817 87.875,59.693 88.095,59.449C89.524,57.865 90.516,56.023 91.042,53.975C91.094,53.772 91.088,53.559 91.024,53.359C90.778,52.589 90.394,52.168 90.025,51.939C90.042,51.807 90.034,51.671 90.003,51.54C89.927,51.225 89.716,50.957 89.427,50.81C89.401,50.797 89.378,50.794 89.352,50.782C90.006,48.722 90.584,46.62 91.135,44.578C91.744,42.322 92.374,39.99 93.114,37.745C93.224,37.412 93.363,37.031 93.514,36.616C94.571,33.72 96.165,29.344 93.539,26.933Z" style="fill-rule:nonzero;"/>
                <path d="M35.78,40.296C35.5,40.534 35.198,40.752 34.884,40.945C34.385,41.252 34.213,41.89 34.478,42.403C34.439,42.489 34.402,42.575 34.365,42.661C34.08,43.312 33.812,43.928 33.361,44.46C31.699,46.424 29.346,47.96 27.071,49.445L26.985,49.5C26.862,49.304 26.728,49.092 26.585,48.865C24.096,44.93 22.952,42.564 23.124,41.895C23.19,41.849 23.257,41.803 23.324,41.757C23.795,41.432 23.942,40.802 23.664,40.301C23.386,39.801 22.773,39.592 22.248,39.82C22.014,39.921 21.809,40.055 21.634,40.218C20.987,40.668 20.341,41.12 19.695,41.572L19.214,41.908C18.962,40.944 18.576,39.88 18.178,38.781C17.474,36.84 16.41,33.905 16.999,33.093C17.226,32.78 17.274,32.371 17.126,32.014C16.978,31.657 16.655,31.402 16.273,31.341C15.809,31.267 15.75,31.257 15.783,30C15.825,28.462 16.486,27.451 17.363,26.786C17.613,27.252 17.906,27.703 18.191,28.14C18.339,28.368 18.492,28.603 18.646,28.848C18.938,29.314 19.526,29.498 20.03,29.279C22.243,28.323 23.047,26.481 22.294,24.092C22.141,23.606 21.694,23.288 21.169,23.316C20.517,23.353 19.898,23.436 19.317,23.562C19.475,23.368 19.681,23.162 19.939,22.932C21.375,21.656 24.218,20.162 26.405,20.02C26.581,20.741 26.843,21.465 27.193,22.357C27.36,22.783 27.77,23 28.228,23L28.236,23C29.399,23 30,22.577 30.298,22.167C30.787,21.498 30.842,20.636 30.467,19.47C30.41,19.295 30.311,19.152 30.178,19.025C29.649,18.516 29.03,18.191 28.354,17.999C28.34,16.738 28.802,15.641 29.741,14.006C32.922,15.254 33.827,16.805 34.139,20.061C33.65,20.144 33.26,20.55 33.217,21.068C33.166,21.68 33.622,22.218 34.235,22.269L35.25,22.353C35.571,22.378 35.886,22.265 36.116,22.042C36.346,21.819 36.468,21.506 36.451,21.186C36.187,16.165 35.096,13.45 29.607,11.596C29.11,11.429 28.564,11.629 28.295,12.079C26.897,14.418 26.162,16.022 26.132,17.827C23.255,18.063 20.068,19.841 18.46,21.271C17.136,22.449 16.679,23.542 16.692,24.565C14.755,25.712 13.622,27.582 13.559,29.942C13.535,30.823 13.496,32.301 14.67,33.083C14.373,34.819 15.21,37.128 16.085,39.541C16.679,41.178 17.293,42.872 17.278,43.823C17.272,44.24 17.499,44.626 17.867,44.822C18.234,45.017 18.681,44.991 19.025,44.755L20.971,43.397C21.031,43.355 21.091,43.313 21.151,43.271C21.656,45.125 23.07,47.475 24.704,50.057C25.118,50.71 25.46,51.249 25.646,51.595C25.794,51.87 26.051,52.071 26.355,52.147C26.444,52.169 26.535,52.181 26.626,52.181C26.843,52.181 27.057,52.118 27.241,51.995L28.287,51.308C30.696,49.735 33.187,48.109 35.059,45.897C35.72,45.116 36.083,44.285 36.403,43.552C36.687,42.902 36.932,42.341 37.337,41.877C37.72,41.439 37.7,40.779 37.291,40.364C36.885,39.949 36.225,39.92 35.78,40.296ZM20.342,25.639C20.361,26.13 20.21,26.477 19.939,26.744C19.72,26.405 19.533,26.108 19.38,25.842C19.714,25.75 20.039,25.686 20.342,25.639Z" style="fill-rule:nonzero;"/>
                <path d="M22.69,31.892C22.09,31.753 21.493,32.125 21.353,32.723C21.214,33.322 21.585,33.92 22.184,34.06C22.502,34.134 22.656,34.276 23.061,35.074C23.258,35.46 23.648,35.683 24.054,35.683C24.223,35.683 24.396,35.644 24.557,35.562C25.105,35.283 25.323,34.613 25.045,34.065C24.651,33.288 24.11,32.224 22.69,31.892Z" style="fill-rule:nonzero;"/>
                <path d="M23.862,55.803C23.285,55.864 22.722,56.066 22.183,56.363C22.184,55.972 22.128,55.589 22.003,55.217C21.835,54.72 21.34,54.41 20.819,54.468C20.325,54.526 19.817,54.724 19.313,55.024C19.39,54.598 19.446,54.171 19.484,53.743C19.525,53.761 19.561,53.787 19.605,53.8C20.197,53.968 20.813,53.63 20.983,53.039L21.167,52.4C21.325,51.851 21.042,51.271 20.511,51.059C19.164,50.52 17.788,50.023 16.457,49.543C15.43,49.172 14.403,48.801 13.383,48.41C13.207,48.342 12.934,48.196 12.612,48.029C10.984,47.186 9.658,46.567 8.628,46.917C7.794,47.2 7.234,48.236 6.075,51.014C5.907,51.416 5.777,51.738 5.705,51.87L5.216,52.748C4.157,54.645 3.062,56.607 2.176,58.684C2.029,59.031 2.066,59.311 2.276,59.624C2.484,59.932 2.831,60 3.201,60L3.238,60C4,60 5.276,60.707 6.402,61.229C7.705,61.833 8.946,62.46 10.063,62.549C9.945,62.838 9.943,63.192 10.078,63.476C10.223,63.778 10.495,64.013 10.821,64.092C11.336,64.216 11.857,64.233 12.375,64.125C12.977,64.001 13.364,63.416 13.24,62.814C13.175,62.499 12.983,62.244 12.727,62.089C12.729,62.084 12.731,62.081 12.733,62.077C13.688,59.932 15.29,56.338 17.127,54.62C16.894,55.922 16.464,57.24 15.968,58.551C15.09,59.952 14.506,61.425 14.48,62.461C14.466,63 14.841,63.472 15.37,63.58C15.901,63.684 16.428,63.4 16.627,62.898C16.796,62.47 16.974,62.035 17.154,61.592C17.418,60.945 17.691,60.276 17.952,59.592C18.485,58.779 19.125,57.995 19.739,57.445C19.374,58.489 18.63,59.701 18.07,60.613C17.702,61.213 17.354,61.779 17.105,62.278C16.832,62.827 17.054,63.494 17.603,63.769C18.153,64.044 18.818,63.822 19.095,63.275C19.119,63.228 19.143,63.18 19.168,63.132C19.357,62.773 19.62,62.342 19.9,61.886C20.758,60.564 21.897,59.201 22.946,58.496C22.535,60.506 20.43,63.476 19.069,65.396C18.417,66.317 17.854,67.111 17.48,67.752C17.17,68.282 17.349,68.964 17.88,69.273C18.056,69.377 18.25,69.425 18.44,69.425C18.823,69.425 19.195,69.227 19.402,68.872C19.727,68.316 20.264,67.559 20.885,66.682C23.179,63.445 26.034,59.415 25.029,56.538C24.859,56.055 24.377,55.741 23.862,55.803ZM10.996,60.511C10.825,60.431 10.641,60.378 10.444,60.396C9.789,60.464 8.482,59.856 7.338,59.326C6.492,58.934 5.63,58.535 4.802,58.28C5.514,56.784 6.319,55.342 7.16,53.834L7.653,52.95C7.744,52.786 7.917,52.383 8.13,51.872C8.397,51.233 9.057,49.651 9.448,49.062C9.99,49.176 11.088,49.745 11.59,50.005C12.005,50.22 12.36,50.4 12.587,50.487C13.621,50.884 14.662,51.26 15.703,51.636C16.084,51.774 16.475,51.922 16.861,52.063C14.233,53.579 12.344,57.507 10.996,60.511Z" style="fill-rule:nonzero;"/>
                <path d="M80.698,79.595C80.165,79.214 79.505,78.967 78.793,78.804C78.679,78.298 78.522,77.803 78.381,77.368C77.696,75.245 77.546,74.274 78.39,73.761C78.785,73.522 78.99,73.063 78.907,72.61C78.823,72.156 78.469,71.8 78.014,71.716C74.475,71.063 71.204,70 67.743,68.875C66.687,68.532 65.626,68.187 64.553,67.854C62.56,67.233 60.52,66.797 58.947,67.581C61.064,64.723 61.889,62.681 61.564,61.204C61.516,60.989 61.446,60.788 61.353,60.6C61.433,60.555 61.513,60.509 61.593,60.463C63.096,59.608 64.65,58.724 65.834,57.222C66.046,56.953 66.122,56.602 66.041,56.27C65.961,55.938 65.731,55.661 65.42,55.519C64.406,55.059 63.408,55.137 62.524,55.205C62.279,55.224 62.033,55.243 61.789,55.249C61.175,55.263 60.687,55.771 60.701,56.386C60.714,57 61.227,57.446 61.838,57.474C61.985,57.471 62.133,57.463 62.28,57.454C61.718,57.832 61.114,58.177 60.493,58.529C59.972,58.826 59.452,59.123 58.947,59.443C58.596,59.665 58.398,60.064 58.434,60.477C58.469,60.89 58.731,61.249 59.114,61.41C59.351,61.509 59.373,61.605 59.39,61.682C59.524,62.291 59.206,64.395 53.373,70.756C53.189,70.956 53.05,71.11 52.964,71.206C52.559,71.669 52.605,72.372 53.067,72.777C53.279,72.962 53.541,73.053 53.801,73.053C54.11,73.053 54.417,72.924 54.638,72.674C54.716,72.584 54.845,72.444 55.014,72.259C55.7,71.511 56.325,70.804 56.9,70.131C56.683,70.76 56.521,71.493 56.413,72.347C56.311,73.159 56.352,74.724 56.411,76.889C56.438,77.916 56.455,78.878 56.465,79.801C56.411,79.55 56.295,79.32 56.117,79.105C55.146,77.931 53.222,78.327 44.378,83.781C43.97,84.033 43.678,84.213 43.55,84.286C43.196,84.486 42.981,84.864 42.987,85.27L42.994,85.836C43.003,86.445 43.5,87 44.107,87L44.124,87C44.689,87 45.15,86.496 45.213,85.949C45.315,85.887 45.426,85.783 45.548,85.709C49.953,82.992 52.317,81.734 53.584,81.193C52.908,82.047 51.582,83.453 49.032,85.803C48.705,86.104 48.461,86.325 48.344,86.442C48.039,86.748 47.938,87.201 48.085,87.606C48.232,88.012 48.601,88.295 49.031,88.334C49.185,88.348 49.34,88.355 49.495,88.356C49.442,88.374 49.389,88.39 49.336,88.405C48.909,88.527 48.595,88.891 48.538,89.332C48.481,89.773 48.691,90.205 49.073,90.433C49.325,90.582 49.585,90.705 49.847,90.81C49.339,91.006 48.817,91.212 48.304,91.46C47.917,91.647 47.672,92.039 47.675,92.469C47.678,92.899 47.927,93.288 48.316,93.47C48.422,93.52 48.526,93.573 48.628,93.628C48.096,93.814 47.144,93.698 45.553,93.287C45.264,93.212 45.002,93.145 44.78,93.098C44.177,92.97 43.588,93.354 43.46,93.955C43.332,94.556 43.716,95.147 44.317,95.275C44.511,95.316 44.742,95.376 44.996,95.442C45.766,95.64 46.899,95.933 48.004,95.933C49.426,95.933 50.801,95.449 51.295,93.655C51.387,93.323 51.317,92.972 51.12,92.703C52.042,92.345 52.981,91.954 53.846,91.332C54.205,91.074 54.377,90.629 54.285,90.196C54.192,89.764 53.853,89.427 53.421,89.339C53.119,89.277 52.812,89.225 52.503,89.173C52.489,89.17 52.477,89.168 52.463,89.166C53.253,88.406 53.682,87.417 53.359,86.278C53.272,85.97 53.056,85.715 52.767,85.577C52.706,85.549 52.644,85.525 52.579,85.508C55.103,83.05 56.288,81.522 56.474,80.42C56.524,87.951 55.962,91.851 54.796,92.023C54.241,92.104 53.834,92.585 53.846,93.146C53.857,93.707 54.283,94.17 54.84,94.23C56.235,94.378 57.638,94.541 59.046,94.703C62.741,95.129 66.563,95.568 70.29,95.777C70.311,95.778 70.332,95.779 70.352,95.779C70.789,95.779 71.187,95.523 71.368,95.122C71.835,94.08 71.977,92.902 71.951,91.761C72.293,91.801 72.634,91.828 72.97,91.828C73.888,91.828 74.771,91.665 75.556,91.26C75.899,91.082 76.126,90.739 76.155,90.354C76.184,89.968 76.011,89.596 75.698,89.37L75.042,88.894C74.542,88.533 73.847,88.644 73.488,89.143C73.385,89.285 73.321,89.442 73.293,89.602C72.797,89.638 72.256,89.587 71.701,89.486C71.657,89.254 71.609,89.029 71.56,88.816C71.42,88.217 70.821,87.847 70.224,87.984C69.795,88.084 69.491,88.423 69.399,88.825C68.681,88.557 67.998,88.257 67.413,87.981C67.425,87.975 67.436,87.969 67.448,87.963C67.988,87.692 68.728,87.513 69.561,87.405C71.213,88.217 73.636,88.153 75.458,88.105C76.18,88.086 76.861,88.068 77.302,88.108C77.832,88.154 78.336,87.811 78.478,87.288C78.618,86.766 78.362,86.218 77.871,85.99C76.573,85.389 73.452,84.937 70.586,85.086C71.189,84.802 71.882,84.585 72.604,84.436C74.377,84.808 76.31,84.918 77.935,84.509C78.416,84.387 78.759,83.961 78.775,83.465C78.791,82.969 78.476,82.523 78.004,82.37C77.809,82.307 77.58,82.227 77.364,82.178C78.089,81.937 78.514,82 78.737,81L78.739,81C78.737,82 79.03,81.944 79.496,82.101C80.078,82.298 80.711,82.007 80.906,81.425L81.105,80.846C81.263,80.382 81.098,79.88 80.698,79.595ZM68.732,81.772C68.58,82.042 68.545,82.362 68.639,82.658C68.727,82.937 68.921,83.17 69.179,83.305C68.803,83.512 68.453,83.743 68.139,83.999C67.827,84.252 67.677,84.654 67.745,85.05C67.77,85.196 67.803,85.337 67.843,85.47C67.328,85.602 66.857,85.767 66.449,85.972C65.158,86.618 64.728,87.508 64.595,88.14C64.491,88.633 64.732,89.135 65.182,89.363C66.198,89.876 67.866,90.717 69.688,91.272C69.752,92.11 69.721,92.872 69.571,93.503C66.172,93.282 62.681,92.881 59.299,92.491C58.666,92.418 58.034,92.345 57.404,92.273C58.812,89.348 58.813,83.493 58.635,76.831C58.584,74.92 58.539,73.27 58.621,72.625C58.824,71.012 59.225,70.002 59.813,69.623C60.475,69.196 61.733,69.308 63.888,69.978C64.953,70.31 66.006,70.652 67.053,70.992C69.875,71.909 72.779,72.851 75.806,73.534C75.275,74.993 75.842,76.753 76.261,78.052C76.31,78.205 76.368,78.384 76.425,78.569C75.428,78.582 74.443,78.706 73.608,78.891C72.228,79.194 69.755,79.975 68.732,81.772ZM72.643,82.158C72.336,82.085 72.038,82.003 71.747,81.914C72.361,81.564 73.169,81.267 74.09,81.063C74.714,80.926 75.353,80.843 75.969,80.81C75.892,81.031 75.867,81.272 75.946,81.512C76.021,81.743 76.176,81.916 76.359,82.05C75.209,81.92 73.919,81.942 72.643,82.158Z" style="fill-rule:nonzero;"/>
                <path d="M53.269,62.159C52.34,62.735 51.202,63.015 50.505,62.847C49.912,62.702 49.306,63.067 49.159,63.663C49.013,64.261 49.379,64.862 49.975,65.009C50.282,65.084 50.612,65.12 50.957,65.12C52.066,65.12 53.327,64.742 54.441,64.05C55.708,63.264 56.541,62.218 56.789,61.106C57.155,59.464 56.312,57.784 54.739,57.018C53.296,56.315 51.717,56.656 50.713,57.881C50.323,58.356 50.393,59.057 50.868,59.446C51.344,59.837 52.045,59.767 52.434,59.291C52.879,58.75 53.402,58.843 53.764,59.019C54.306,59.283 54.773,59.918 54.617,60.622C54.505,61.13 54,61.704 53.269,62.159Z" style="fill-rule:nonzero;"/>
                <path d="M44.576,57.912C45.187,57.844 45.627,57.294 45.559,56.683C45.492,56.073 44.935,55.64 44.33,55.7C44.095,55.727 43.908,55.716 43.759,55.678C43.68,55.323 43.429,55.012 43.063,54.874L42.608,54.7C42.172,54.536 41.682,54.656 41.377,55.005C41.07,55.354 41.012,55.857 41.231,56.266C41.809,57.345 42.84,57.939 44.105,57.939C44.259,57.938 44.416,57.93 44.576,57.912Z" style="fill-rule:nonzero;"/>
                <path d="M59.762,53.126C59.943,52.539 59.613,51.916 59.025,51.736C58.436,51.549 57.814,51.885 57.635,52.473C57.42,53.17 56.854,53.544 56.138,53.472C55.501,53.403 54.98,53.858 54.92,54.469C54.859,55.081 55.306,55.626 55.917,55.687C56.05,55.7 56.18,55.707 56.31,55.707C57.917,55.707 59.276,54.708 59.762,53.126Z" style="fill-rule:nonzero;"/>
                <path d="M44.399,45.995C45.02,47.382 45.793,49.108 45.581,50.392C45.481,50.998 45.892,51.571 46.498,51.671C46.56,51.681 46.62,51.686 46.681,51.686C47.216,51.686 47.688,51.299 47.778,50.754C48.099,48.808 47.174,46.744 46.431,45.085C46.247,44.675 46.074,44.288 45.935,43.936C45.711,43.364 45.066,43.082 44.493,43.306C43.921,43.53 43.639,44.176 43.863,44.748C44.012,45.13 44.2,45.55 44.399,45.995Z" style="fill-rule:nonzero;"/>
                <path d="M48.323,46.782C48.805,46.842 48.982,47.098 49.526,48.169C49.717,48.546 49.925,48.954 50.182,49.374C50.391,49.717 50.758,49.907 51.133,49.907C51.33,49.907 51.53,49.855 51.712,49.744C52.236,49.424 52.402,48.739 52.082,48.214C51.857,47.848 51.678,47.491 51.511,47.162C50.946,46.048 50.304,44.785 48.597,44.574C47.993,44.5 47.431,44.932 47.356,45.542C47.281,46.152 47.713,46.706 48.323,46.782Z" style="fill-rule:nonzero;"/>
                <path d="M54.547,49.292C54.731,49.406 54.935,49.461 55.136,49.461C55.507,49.461 55.869,49.276 56.08,48.938C56.406,48.417 56.248,47.73 55.726,47.404C55.288,47.13 54.884,46.778 54.504,46.391L57.655,48.396C57.841,48.514 58.048,48.57 58.252,48.57C58.62,48.57 58.98,48.388 59.191,48.055C59.521,47.536 59.369,46.848 58.85,46.518L53.954,43.402C53.434,43.072 52.748,43.226 52.418,43.743C52.416,43.746 52.416,43.749 52.415,43.752C52.139,43.647 51.825,43.646 51.537,43.784C50.984,44.052 50.752,44.717 51.019,45.27C51.829,46.949 53.082,48.376 54.547,49.292Z" style="fill-rule:nonzero;"/>
            </g>
        </g>
    </g>
</svg>
