<?xml version="1.0" encoding="UTF-8" standalone="no"?> <!-- Created with Vectornator for iOS (http://vectornator.io/) --><!DOCTYPE svg PUBLIC "-//W3C//DTD SVG 1.1//EN" "http://www.w3.org/Graphics/SVG/1.1/DTD/svg11.dtd">
<svg height="100%" style="fill-rule:nonzero;clip-rule:evenodd;stroke-linecap:round;stroke-linejoin:round;" xmlns:xlink="http://www.w3.org/1999/xlink" xmlns="http://www.w3.org/2000/svg" xml:space="preserve" width="100%" xmlns:vectornator="http://vectornator.io" version="1.1" viewBox="0 0 1024 1024">
<metadata>
<vectornator:setting key="DimensionsVisible" value="1"/>
<vectornator:setting key="PencilOnly" value="0"/>
<vectornator:setting key="SnapToPoints" value="0"/>
<vectornator:setting key="OutlineMode" value="0"/>
<vectornator:setting key="CMYKEnabledKey" value="0"/>
<vectornator:setting key="RulersVisible" value="1"/>
<vectornator:setting key="SnapToEdges" value="0"/>
<vectornator:setting key="GuidesVisible" value="1"/>
<vectornator:setting key="DisplayWhiteBackground" value="0"/>
<vectornator:setting key="doHistoryDisabled" value="0"/>
<vectornator:setting key="SnapToGuides" value="1"/>
<vectornator:setting key="TimeLapseWatermarkDisabled" value="0"/>
<vectornator:setting key="Units" value="Pixels"/>
<vectornator:setting key="DynamicGuides" value="0"/>
<vectornator:setting key="IsolateActiveLayer" value="0"/>
<vectornator:setting key="SnapToGrid" value="0"/>
</metadata>
<defs/>
<g id="Ebene 1" vectornator:layerName="Ebene 1" visibility="hidden">
<g opacity="1">
<path stroke="#000000" stroke-width="30" d="M604.791+148.509C604.791+146.351+564.174+156.524+551.526+166.27C529.112+183.542+507.402+207.911+500.35+237.313C492.055+271.901+502.29+304.155+513.928+336.108C522.196+358.812+530.608+381.668+542.127+402.711C572.209+457.664+628.74+504.021+686.255+521.487C696.436+524.578+707.006+526.643+717.588+527.037C727.039+527.39+736.7+526.493+745.787+523.707C755.063+520.863+764.174+516.543+771.897+510.386C779.784+504.099+786.234+495.767+791.741+487.075C797.829+477.468+802.572+466.854+806.363+455.994C815.182+430.726+818.501+403.011+817.851+376.07C817.492+361.2+817.212+346.059+813.673+331.668C809.129+313.187+802.73+294.98+793.83+278.385C782.726+257.681+768.988+238.522+754.142+220.662C746.594+211.581+728.251+180.807+698.692+163.371C661.861+141.645+613.114+133.583+610.024+132.147" fill="none" stroke-linecap="round" opacity="1" stroke-linejoin="round"/>
<path stroke="#000000" stroke-width="30" d="M497.974+174.051C488.355+193.396+479.779+213.256+470.016+232.527C451.015+270.034+308.758+518.822+278.789+562.017C256.126+594.682+233.192+627.157+210.574+659.852C175.661+710.32+144.011+762.9+98.7449+804.918" fill="none" stroke-linecap="round" opacity="1" stroke-linejoin="round"/>
<path stroke="#000000" stroke-width="30" d="M731.531+546.162C728.131+549.56+681.316+575.488+677.449+577.987C651.653+594.659+625.217+609.744+598.917+625.139C575.188+639.029+420.443+738.239+366.215+770.798C340.038+786.515+169.198+891.485+163.418+892.759" fill="none" stroke-linecap="round" opacity="1" stroke-linejoin="round"/>
<path stroke="#000000" stroke-width="30" d="M134.34+845.4C133.562+845.4+466.116+548.401+484.684+530.367C513.375+502.502+540.957+473.191+569.281+444.893C586.688+427.502+751.999+260.624+767.719+246.194C791.04+224.787+812.568+201.355+835.606+179.59C847.9+167.975+862.055+159.67+875.294+149.619C877.165+148.198+884.693+142.978+884.693+140.738C884.693+139.461+883.053+141.372+880.516+144.069" fill="none" stroke-linecap="round" opacity="1" stroke-linejoin="round"/>
<path stroke="#000000" stroke-width="30" d="M813.346+134.195C820.288+133.628+827.276+134.469+834.234+134.195C852.441+133.479+865.256+133.23+882.242+125.628C887.078+123.464+910.476+109.774+910.476+109.774C910.476+109.774+895.044+134.585+893.766+139.746C887.809+163.803+882.994+184.894+880.13+209.246" fill="none" stroke-linecap="round" opacity="1" stroke-linejoin="round"/>
</g>
</g>
<g id="Ebene 2" vectornator:layerName="Ebene 2" visibility="hidden">
<path stroke="#000000" stroke-width="30" d="M284.374+333.094C279.817+330.815+273.735+331.003+269.088+333.094C257.059+338.507+250.235+353.325+247.433+366.214C244.893+377.899+244.071+389.933+243.611+401.882C243.219+412.074+242.638+422.505+244.885+432.454C245.747+436.273+248.717+440.475+252.528+441.371C257.241+442.48+262.295+439.878+266.54+437.55C275.63+432.565+284.781+427.138+292.017+419.716C301.563+409.925+310.411+398.974+316.221+386.596C320.433+377.622+321.646+367.204+321.316+357.297C321.194+353.647+317.07+351.353+314.947+348.38" fill="none" stroke-linecap="round" opacity="1" stroke-linejoin="round"/>
<path stroke="#000000" stroke-width="30" d="M763.979+605.698C761.691+603.696+758.618+602.726+755.699+601.876C746.898+599.316+737.982+593.958+728.948+595.507C721.497+596.785+716.161+603.891+711.114+609.52C699.923+622.002+691.305+636.922+690.733+654.104C690.544+659.766+691.824+665.701+694.554+670.664C696.729+674.619+700.708+677.563+704.745+679.581C709.443+681.93+714.791+683.752+720.031+683.403C727.946+682.875+736.614+681.793+742.96+677.034C752.616+669.792+759.851+659.46+765.89+649.009C771.063+640.056+776.536+630.04+776.081+619.71C775.809+613.545+768.624+609.762+763.979+605.698Z" fill="none" stroke-linecap="round" opacity="1" stroke-linejoin="round"/>
<path stroke="#000000" stroke-width="30" d="M758.247+175.137C757.397+174.287+756.753+172.014+755.699+172.589C746.598+177.553+736.735+182.359+730.222+190.423C727.009+194.4+728.54+200.612+728.948+205.709C729.4+211.356+730.511+217.074+732.77+222.269C734.836+227.022+737.341+232.183+741.687+235.008C746.436+238.095+752.836+240.508+758.247+238.829C766.357+236.312+773.441+230.267+778.628+223.543C785.241+214.971+790.605+204.877+792.641+194.244C794.564+184.201+793.327+173.373+790.093+163.672C788.384+158.545+782.45+156.029+778.628+152.207" fill="none" stroke-linecap="round" opacity="1" stroke-linejoin="round"/>
<path stroke="#000000" stroke-width="30" d="M395.199+822.253C395.199+820.979+396.056+819.374+395.199+818.431C391.541+814.407+387.875+807.737+382.461+808.24C367.615+809.621+353.14+815.741+340.424+823.526C331.702+828.866+325.484+837.798+320.042+846.456C315.968+852.937+313.987+860.623+312.399+868.111C309.943+879.688+308.699+891.849+317.494+901.231C320.881+904.844+325.323+908.234+330.233+908.874C335.85+909.607+342.351+908.569+346.793+905.053C353.257+899.935+356.957+891.963+360.805+884.671C365.075+876.582+369.042+868.129+370.996+859.194C372.317+853.155+371.045+844.79+365.901+841.36" fill="none" stroke-linecap="round" opacity="1" stroke-linejoin="round"/>
<path stroke="#000000" stroke-width="30" d="M272.273+87.241C272.664+84.3799+282.1+82.7611+279.279+82.1455C265.564+79.1531+251.029+76.9577+237.242+79.5978C229.817+81.0197+223.743+87.4167+219.408+93.6102C214.477+100.654+212.177+109.382+210.491+117.813C208.74+126.567+207.365+135.831+209.217+144.564C210.488+150.555+214.032+156.918+219.408+159.85C224.627+162.697+231.722+162.058+237.242+159.85C245.127+156.696+251.721+150.67+257.623+144.564C264.176+137.786+269.866+130.016+274.184+121.635C277.202+115.775+279.542+109.114+279.279+102.527C279.055+96.9265+271.513+92.7944+272.273+87.241Z" fill="none" stroke-linecap="round" opacity="1" stroke-linejoin="round"/>
<path stroke="#000000" stroke-width="30" d="M572.264+510.159C572.264+507.612+574.543+503.656+572.264+502.516C562.869+497.818+550.685+489.444+541.692+494.873C524.316+505.364+514.489+525.471+504.75+543.279C499.314+553.22+498.235+565.126+497.107+576.399C496.51+582.375+495.582+589.821+499.655+594.233C502.549+597.369+508.67+595.045+512.394+592.96C519.747+588.841+526.186+582.941+531.501+576.399C537.38+569.164+541.867+560.776+545.514+552.196C549.141+543.661+553.157+534.719+553.157+525.445C553.157+519.749+548.061+515.255+545.514+510.159" fill="none" stroke-linecap="round" opacity="1" stroke-linejoin="round"/>
<path stroke="#000000" stroke-width="30" d="M210.491+619.71C210.491+617.587+212.112+614.713+210.491+613.341C205.85+609.414+199.714+603.822+193.931+605.698C181.814+609.628+172.126+619.386+163.359+628.627C156.141+636.235+151.307+645.91+146.798+655.378C142.757+663.864+139.614+672.891+137.882+682.129C137.017+686.739+137.172+691.891+139.155+696.141C140.45+698.916+143.783+700.705+146.798+701.237C151.417+702.052+156.719+702.255+160.811+699.963C167.889+695.999+174.145+690.153+178.645+683.403C184.552+674.542+188.487+664.352+191.383+654.104C194.062+644.627+196.426+634.579+195.205+624.806C194.604+620.002+190.52+615.692+186.288+613.341C182.188+611.063+176.946+612.492+172.275+612.067" fill="none" stroke-linecap="round" opacity="1" stroke-linejoin="round"/>
<path stroke="#000000" stroke-width="30" d="M512.394+526.719C514.144+523.218+507.976+520.02+504.75+517.802C500.966+515.2+496.939+512.943+493.286+510.159C481.733+501.357+470.79+491.737+458.892+483.408C440.787+470.735+421.848+461.253+402.842+450.288C388.467+441.995+374.629+431.479+360.805+422.264C347.999+413.726+332.701+394.239+316.221+394.239" fill="none" stroke-linecap="round" opacity="1" stroke-linejoin="round"/>
<path stroke="#000000" stroke-width="30" d="M248.707+167.494C249.98+168.767+252.081+169.57+252.528+171.315C256.396+186.4+258.799+201.828+261.445+217.174C263.764+230.623+264.549+244.308+265.267+257.937C265.893+269.832+267.138+283.176+269.088+294.879C270.161+301.318+279.564+308.605+274.184+313.986" fill="none" stroke-linecap="round" opacity="1" stroke-linejoin="round"/>
<path stroke="#000000" stroke-width="30" d="M721.305+222.269C700.005+234.441+677.007+243.64+653.791+251.568C638.88+256.659+623.285+259.489+607.932+263.032C593.648+266.329+579.196+269.1+564.621+270.675C541.841+273.138+518.594+271.819+495.833+274.497C458.018+278.946+423.524+298.895+386.282+306.343C371.149+309.37+356.366+311.357+341.698+316.534C332.174+319.895+323.29+324.793+313.673+327.999C302.911+331.586+288.715+330.405+281.827+340.737" fill="none" stroke-linecap="round" opacity="1" stroke-linejoin="round"/>
<path stroke="#000000" stroke-width="30" d="M748.056+578.947C748.056+556.928+750.876+534.729+751.877+512.707C752.788+492.669+749.355+472.808+750.604+452.836C751.618+436.607+754.114+420.803+753.151+404.43C752.774+398.015+750.604+391.748+750.604+385.322C750.604+376.368+753.851+367.197+755.699+358.571C758.329+346.296+756.973+332.846+756.973+320.356C756.973+311.823+755.564+302.057+756.973+293.605C758.814+282.555+761.618+273.29+760.794+261.758C760.355+255.607+760.2+247.151+755.699+242.651" fill="none" stroke-linecap="round" opacity="1" stroke-linejoin="round"/>
<path stroke="#000000" stroke-width="30" d="M489.464+581.495C488.615+581.495+487.747+581.319+486.917+581.495C473.716+584.295+459.772+584.961+447.427+590.412C426.709+599.56+406.988+611.27+388.83+624.806C383.164+629.029+381.495+636.905+377.365+642.64C370.963+651.533+364.23+660.203+358.258+669.391C346.27+687.833+333.2+704.449+328.959+726.714C325.935+742.592+327.049+759.196+323.864+775.12C320.406+792.408+316.221+808.265+316.221+826.074" fill="none" stroke-linecap="round" opacity="1" stroke-linejoin="round"/>
</g>
<g id="Ebene 3" vectornator:layerName="Ebene 3">
<path stroke="#000000" stroke-width="30" d="M122.517+457.142C144.308+449.878+163.992+426.091+176.73+408.635C211.284+361.284+222.458+304.54+224.286+246.945C224.588+237.439+225.103+227.888+224.286+218.412C222.41+196.648+216.85+170.112+202.41+152.785C179.453+125.236+150.146+140.723+126.321+157.54C118.294+163.206+97.0149+195.369+95.4784+225.178C93.9967+253.92+112.007+280.205+117.761+292.599C132.728+324.835+152.382+357.579+180.535+380.102C208.046+402.111+257.633+415.993+292.767+411.488C307.499+409.6+317.39+404.264+329.86+396.271C348.175+384.53+365.539+367.734+376.465+348.715C385.734+332.579+406.176+247.5+438.287+206.998C453.338+188.016+472.559+162.913+493.857+148.849C518.002+132.906+543.839+129.193+551.47+129.007C564.661+128.685+581.068+132.532+593.319+136.616C614.496+143.675+635.737+154.203+655.142+165.149C680.938+179.701+701.705+198.845+719.818+222.216C741.119+249.701+764.929+282.243+774.032+316.377C780.726+341.481+780.19+366.633+773.08+391.515C768.38+407.966+761.512+424.874+750.254+438.12C731.824+459.802+703.22+469.865+676.067+475.213C631.521+483.987+593.82+478.76+554.324+456.191C514.831+433.624+473.899+388.53+488.697+339.204C495.008+318.166+511.853+297.676+527.692+283.088C552.484+260.254+579.017+256.719+611.391+257.407C621.537+257.623+641.886+259.489+670.658+272.567C699.429+285.645+717+302.68+726.476+309.719C748.6+326.154+820.933+387.132+837.756+398.173C864.191+415.52+892.814+424.804+924.308+424.804C928.112+424.804+948.444+425.038+949.988+421.951" fill="none" stroke-linecap="round" opacity="1" stroke-linejoin="round"/>
<path stroke="#000000" stroke-width="30" d="M907.188+367.737C913.407+370.847+916.813+377.778+921.455+382.955C930.742+393.314+942.249+407.112+952.842+416.244C958.084+420.763+979.187+429.845+977.571+431.462C975.541+433.492+950.952+440.728+942.379+445.729C926.201+455.166+910.758+465.878+895.775+477.115" fill="none" stroke-linecap="round" opacity="1" stroke-linejoin="round"/>
<path stroke="#000000" stroke-width="30" d="M86.3743+751.988C93.9319+749.663+102.127+749.666+110.073+749.135C126.89+748.01+143.753+747.516+160.561+746.281C221.774+741.787+282.62+735.313+343.968+732.015C400.771+728.96+457.223+722.954+513.98+719.65C588.653+715.303+663.816+715.127+738.603+715.846C790.798+716.348+843.035+716.822+895.22+717.748C903.125+717.888+911.014+718.496+918.918+718.699C927.121+718.909+936.599+721.249+940.556+713.943" fill="none" stroke-linecap="round" opacity="1" stroke-linejoin="round"/>
<path stroke="#000000" stroke-width="30" d="M892.26+668.409C900.089+671.295+900.706+671.802+903.463+673.575C908.693+676.94+913.599+680.951+918.918+684.129C927.351+689.168+935.974+693.799+944.678+698.201C955.228+703.538+979.711+714.382+979.711+715.791C979.711+718.109+917.291+754.362+886.964+776.326" fill="none" stroke-linecap="round" opacity="1" stroke-linejoin="round"/>
</g>
</svg>
