<?xml version="1.0" standalone="no"?>
<!DOCTYPE svg PUBLIC "-//W3C//DTD SVG 20010904//EN"
 "http://www.w3.org/TR/2001/REC-SVG-20010904/DTD/svg10.dtd">
<svg version="1.0" xmlns="http://www.w3.org/2000/svg"
 width="700.000000pt" height="700.000000pt" viewBox="0 0 700.000000 700.000000"
 preserveAspectRatio="xMidYMid meet">
<metadata>
Created by potrace 1.14, written by Peter Selinger 2001-2017
</metadata>
<g transform="translate(0.000000,700.000000) scale(0.100000,-0.100000)"
fill="#000000" stroke="none">
<path d="M1510 3475 l0 -805 510 0 510 0 0 105 0 105 -385 0 -385 0 0 245 0
245 355 0 355 0 0 105 0 105 -355 0 -355 0 0 245 0 245 383 2 382 3 3 103 3
102 -511 0 -510 0 0 -805z"/>
<path d="M4625 4140 l-70 -70 245 -245 245 -245 -1048 0 -1047 0 0 -105 0
-105 1047 0 1048 0 -245 -245 -245 -245 73 -72 72 -73 368 368 367 367 -370
370 -370 370 -70 -70z"/>
</g>
</svg>
