<?xml version="1.0" encoding="UTF-8" standalone="no"?> <!-- Created with Vectornator for iOS (http://vectornator.io/) --><!DOCTYPE svg PUBLIC "-//W3C//DTD SVG 1.1//EN" "http://www.w3.org/Graphics/SVG/1.1/DTD/svg11.dtd">
<svg height="100%" style="fill-rule:nonzero;clip-rule:evenodd;stroke-linecap:round;stroke-linejoin:round;" xmlns:xlink="http://www.w3.org/1999/xlink" xmlns="http://www.w3.org/2000/svg" xml:space="preserve" width="100%" xmlns:vectornator="http://vectornator.io" version="1.1" viewBox="0 0 1024 1024">
<metadata>
<vectornator:setting key="DimensionsVisible" value="1"/>
<vectornator:setting key="PencilOnly" value="0"/>
<vectornator:setting key="SnapToPoints" value="0"/>
<vectornator:setting key="OutlineMode" value="0"/>
<vectornator:setting key="CMYKEnabledKey" value="0"/>
<vectornator:setting key="RulersVisible" value="1"/>
<vectornator:setting key="SnapToEdges" value="0"/>
<vectornator:setting key="GuidesVisible" value="1"/>
<vectornator:setting key="DisplayWhiteBackground" value="0"/>
<vectornator:setting key="doHistoryDisabled" value="0"/>
<vectornator:setting key="SnapToGuides" value="1"/>
<vectornator:setting key="TimeLapseWatermarkDisabled" value="0"/>
<vectornator:setting key="Units" value="Pixels"/>
<vectornator:setting key="DynamicGuides" value="0"/>
<vectornator:setting key="IsolateActiveLayer" value="0"/>
<vectornator:setting key="SnapToGrid" value="0"/>
</metadata>
<defs/>
<g id="Ebene 1" vectornator:layerName="Ebene 1" visibility="hidden">
<g opacity="1">
<path stroke="#000000" stroke-width="30" d="M604.791+148.509C604.791+146.351+564.174+156.524+551.526+166.27C529.112+183.542+507.402+207.911+500.35+237.313C492.055+271.901+502.29+304.155+513.928+336.108C522.196+358.812+530.608+381.668+542.127+402.711C572.209+457.664+628.74+504.021+686.255+521.487C696.436+524.578+707.006+526.643+717.588+527.037C727.039+527.39+736.7+526.493+745.787+523.707C755.063+520.863+764.174+516.543+771.897+510.386C779.784+504.099+786.234+495.767+791.741+487.075C797.829+477.468+802.572+466.854+806.363+455.994C815.182+430.726+818.501+403.011+817.851+376.07C817.492+361.2+817.212+346.059+813.673+331.668C809.129+313.187+802.73+294.98+793.83+278.385C782.726+257.681+768.988+238.522+754.142+220.662C746.594+211.581+728.251+180.807+698.692+163.371C661.861+141.645+613.114+133.583+610.024+132.147" fill="none" stroke-linecap="round" opacity="1" stroke-linejoin="round"/>
<path stroke="#000000" stroke-width="30" d="M497.974+174.051C488.355+193.396+479.779+213.256+470.016+232.527C451.015+270.034+308.758+518.822+278.789+562.017C256.126+594.682+233.192+627.157+210.574+659.852C175.661+710.32+144.011+762.9+98.7449+804.918" fill="none" stroke-linecap="round" opacity="1" stroke-linejoin="round"/>
<path stroke="#000000" stroke-width="30" d="M731.531+546.162C728.131+549.56+681.316+575.488+677.449+577.987C651.653+594.659+625.217+609.744+598.917+625.139C575.188+639.029+420.443+738.239+366.215+770.798C340.038+786.515+169.198+891.485+163.418+892.759" fill="none" stroke-linecap="round" opacity="1" stroke-linejoin="round"/>
<path stroke="#000000" stroke-width="30" d="M134.34+845.4C133.562+845.4+466.116+548.401+484.684+530.367C513.375+502.502+540.957+473.191+569.281+444.893C586.688+427.502+751.999+260.624+767.719+246.194C791.04+224.787+812.568+201.355+835.606+179.59C847.9+167.975+862.055+159.67+875.294+149.619C877.165+148.198+884.693+142.978+884.693+140.738C884.693+139.461+883.053+141.372+880.516+144.069" fill="none" stroke-linecap="round" opacity="1" stroke-linejoin="round"/>
<path stroke="#000000" stroke-width="30" d="M813.346+134.195C820.288+133.628+827.276+134.469+834.234+134.195C852.441+133.479+865.256+133.23+882.242+125.628C887.078+123.464+910.476+109.774+910.476+109.774C910.476+109.774+895.044+134.585+893.766+139.746C887.809+163.803+882.994+184.894+880.13+209.246" fill="none" stroke-linecap="round" opacity="1" stroke-linejoin="round"/>
</g>
</g>
<g id="Ebene 3" vectornator:layerName="Ebene 3" visibility="hidden">
<path stroke="#000000" stroke-width="30" d="M122.517+457.142C144.308+449.878+163.992+426.091+176.73+408.635C211.284+361.284+222.458+304.54+224.286+246.945C224.588+237.439+225.103+227.888+224.286+218.412C222.41+196.648+216.85+170.112+202.41+152.785C179.453+125.236+150.146+140.723+126.321+157.54C118.294+163.206+97.0149+195.369+95.4784+225.178C93.9967+253.92+112.007+280.205+117.761+292.599C132.728+324.835+152.382+357.579+180.535+380.102C208.046+402.111+257.633+415.993+292.767+411.488C307.499+409.6+317.39+404.264+329.86+396.271C348.175+384.53+365.539+367.734+376.465+348.715C385.734+332.579+406.176+247.5+438.287+206.998C453.338+188.016+472.559+162.913+493.857+148.849C518.002+132.906+543.839+129.193+551.47+129.007C564.661+128.685+581.068+132.532+593.319+136.616C614.496+143.675+635.737+154.203+655.142+165.149C680.938+179.701+701.705+198.845+719.818+222.216C741.119+249.701+764.929+282.243+774.032+316.377C780.726+341.481+780.19+366.633+773.08+391.515C768.38+407.966+761.512+424.874+750.254+438.12C731.824+459.802+703.22+469.865+676.067+475.213C631.521+483.987+593.82+478.76+554.324+456.191C514.831+433.624+473.899+388.53+488.697+339.204C495.008+318.166+511.853+297.676+527.692+283.088C552.484+260.254+579.017+256.719+611.391+257.407C621.537+257.623+641.886+259.489+670.658+272.567C699.429+285.645+717+302.68+726.476+309.719C748.6+326.154+820.933+387.132+837.756+398.173C864.191+415.52+892.814+424.804+924.308+424.804C928.112+424.804+948.444+425.038+949.988+421.951" fill="none" stroke-linecap="round" opacity="1" stroke-linejoin="round"/>
<path stroke="#000000" stroke-width="30" d="M907.188+367.737C913.407+370.847+916.813+377.778+921.455+382.955C930.742+393.314+942.249+407.112+952.842+416.244C958.084+420.763+979.187+429.845+977.571+431.462C975.541+433.492+950.952+440.728+942.379+445.729C926.201+455.166+910.758+465.878+895.775+477.115" fill="none" stroke-linecap="round" opacity="1" stroke-linejoin="round"/>
<path stroke="#000000" stroke-width="30" d="M86.3743+751.988C93.9319+749.663+102.127+749.666+110.073+749.135C126.89+748.01+143.753+747.516+160.561+746.281C221.774+741.787+282.62+735.313+343.968+732.015C400.771+728.96+457.223+722.954+513.98+719.65C588.653+715.303+663.816+715.127+738.603+715.846C790.798+716.348+843.035+716.822+895.22+717.748C903.125+717.888+911.014+718.496+918.918+718.699C927.121+718.909+936.599+721.249+940.556+713.943" fill="none" stroke-linecap="round" opacity="1" stroke-linejoin="round"/>
<path stroke="#000000" stroke-width="30" d="M892.26+668.409C900.089+671.295+900.706+671.802+903.463+673.575C908.693+676.94+913.599+680.951+918.918+684.129C927.351+689.168+935.974+693.799+944.678+698.201C955.228+703.538+979.711+714.382+979.711+715.791C979.711+718.109+917.291+754.362+886.964+776.326" fill="none" stroke-linecap="round" opacity="1" stroke-linejoin="round"/>
</g>
<g id="Ebene 2" vectornator:layerName="Ebene 2">
<path stroke="#000000" stroke-width="30" d="M324.03+170.262C319.19+170.944+314.217+171.243+309.609+173.141C288.229+181.945+268.375+196.533+250.721+213.451C217.267+245.511+201.814+282.348+181.018+325.742C174.858+338.597+168.28+351.212+162.992+364.613C147.949+402.731+140.309+443.683+137.867+485.387C134.702+539.432+140.269+594.74+149.772+646.781C155.463+677.948+165.882+716.397+175.382+746.202C193.577+803.288+210.721+840.596+265.143+851.209C317.633+861.445+358.677+839.343+388.031+807.721C417.384+776.099+425.877+760.303+435.795+738.918C446.317+716.23+452.266+690.702+457.427+665.496C466.19+622.703+471.07+577.98+476.656+534.489C478.806+517.747+483.619+467.495+476.511+418.748C470.09+374.715+452.021+331.488+447.813+322.863C438.555+303.886+427.877+285.674+415.365+269.597C405.638+257.097+392.932+248.482+381.715+237.925" fill="none" stroke-linecap="round" opacity="1" stroke-linejoin="round"/>
<path d="M297.469+552.969C295.182+553.082+292.916+553.339+290.688+553.781C282.858+555.334+277.189+558.307+268.375+564.281C267.985+564.545+266.551+565.525+266.219+565.75C257.397+571.731+249.893+577.931+243.625+584.719C229.602+599.904+222.22+616.898+220.188+636.281C218.646+650.983+219.939+664.831+223.906+687.312C226.244+700.561+227.833+706.831+231.812+714.438C236.657+723.696+243.952+730.584+253.719+734.656C266.978+742.928+287.254+747.92+303.219+747.25C318.497+746.609+331.042+738.675+341.062+725.812C347.699+717.294+352.542+707.806+357.469+695.594C365.91+674.668+370.84+652.775+370.562+632.531C370.204+606.392+361.213+584.114+342.125+568.375C335.256+562.711+327.236+558.35+318.812+555.875C311.446+553.711+304.33+552.629+297.469+552.969ZM309.188+665.5C310.87+665.436+312.569+665.599+314.344+666.062C320.279+667.611+324.987+672.265+326.344+678.531C327.089+681.974+326.58+685.132+325.562+688.219C326.175+689.063+326.871+689.872+327.375+690.781C330.575+696.553+331.237+703.352+327.625+709.719C323.177+717.56+314.945+719.937+307.312+718.062C303.275+717.071+299.495+714.932+296.094+712.125C290.724+707.693+286.636+702.009+285.188+695.656C284.844+694.948+284.442+694.309+284.188+693.5C282.852+689.247+283.378+684.695+285.562+680.844C286.836+678.598+288.508+676.965+290.344+675.719C294.038+671.215+299.061+667.842+304.25+666.344C305.865+665.877+307.505+665.564+309.188+665.5Z" opacity="1" fill="#000000"/>
<path stroke="#000000" stroke-width="30" d="M730.801+170.262C725.961+170.944+720.989+171.243+716.38+173.141C695+181.945+675.147+196.533+657.493+213.451C624.038+245.511+608.586+282.348+587.79+325.742C581.63+338.597+575.051+351.212+569.763+364.613C554.721+402.731+547.08+443.683+544.638+485.387C541.474+539.432+547.04+594.74+556.544+646.781C562.235+677.948+572.654+716.397+582.154+746.202C600.349+803.288+617.492+840.596+671.914+851.209C724.405+861.445+765.449+839.343+794.802+807.721C824.156+776.099+832.649+760.303+842.567+738.918C853.088+716.23+859.038+690.702+864.199+665.496C872.961+622.703+877.842+577.98+883.427+534.489C885.577+517.747+890.39+467.495+883.282+418.748C876.861+374.715+858.792+331.488+854.585+322.863C845.326+303.886+834.648+285.674+822.137+269.597C812.41+257.097+799.703+248.482+788.487+237.925" fill="none" stroke-linecap="round" opacity="1" stroke-linejoin="round"/>
<path d="M716.219+566.438C706.259+566.127+696.817+569.176+688.156+574.844C680.548+576.571+673.292+580.095+665.875+585.219C657.251+591.176+650.103+598.54+645.375+606.875C640.381+615.678+637.668+625.788+637.438+635.938C637.362+639.257+637.686+642.518+638.156+645.75C636.12+655.812+636.717+665.691+640.688+674.844C642.524+679.077+645.213+683.053+648.344+686.844C647.802+693.146+648.396+699.839+649.531+705.281C650.596+712.495+652.406+720.04+655.125+726.594C658.233+734.085+662.343+740.354+667.844+745C672.085+748.583+677.002+750.824+682.281+751.906C682.972+752.424+683.65+753.088+684.344+753.562C691.619+758.534+699.116+761.186+706.938+760.375C718.119+759.215+727.096+752.436+734.812+742.281C736.532+740.82+738.229+739.309+739.969+737.562C745.326+732.185+750.052+726.139+754.188+719.688C756.701+716.796+758.895+713.568+760.75+710C763.04+705.595+764.685+700.751+765.906+695.719C768.677+688.131+770.953+680.079+772.75+671.344C773.055+670.49+773.428+669.644+773.688+668.781C776.878+658.183+777.834+647.443+776.094+637.281C776.048+637.017+775.955+636.764+775.906+636.5C775.735+632.637+775.4+628.837+774.812+625.125C771.999+607.329+764.302+592.18+751.062+580.875C744.116+574.944+735.911+570.426+727.25+568.094C723.508+567.086+719.838+566.55+716.219+566.438ZM725.906+669.156C733.198+668.712+740.299+673.451+742.031+681.594C742.067+681.762+742.075+681.927+742.094+682.094C742.178+682.179+742.231+682.288+742.312+682.375C743.913+683.583+745.4+684.892+746.656+686.281C748.941+688.807+750.647+691.646+751.469+695.188C752.739+700.661+751.314+706.386+747.438+710.656C745.358+712.947+742.847+714.438+740.188+715.562C738.111+717.852+735.489+719.525+732.531+720.312C728.057+721.504+724.626+720.845+720.875+719.375C717.876+718.2+714.306+716.116+712.438+714.469C703.794+706.85+700.199+694.773+704.344+683.812C705.917+679.654+708.978+676.649+712.656+675C713.527+674.61+714.398+674.38+715.25+674.156C716.254+673.15+717.374+672.228+718.75+671.406C721.032+670.044+723.476+669.304+725.906+669.156Z" opacity="1" fill="#000000"/>
</g>
</svg>
