<?xml version="1.0" encoding="UTF-8" standalone="no"?> <!-- Created with Vectornator for iOS (http://vectornator.io/) --><!DOCTYPE svg PUBLIC "-//W3C//DTD SVG 1.1//EN" "http://www.w3.org/Graphics/SVG/1.1/DTD/svg11.dtd">
<svg height="100%" style="fill-rule:nonzero;clip-rule:evenodd;stroke-linecap:round;stroke-linejoin:round;" xmlns:xlink="http://www.w3.org/1999/xlink" xmlns="http://www.w3.org/2000/svg" xml:space="preserve" width="100%" xmlns:vectornator="http://vectornator.io" version="1.1" viewBox="0 0 1024 1024">
<metadata>
<vectornator:setting key="DimensionsVisible" value="1"/>
<vectornator:setting key="PencilOnly" value="0"/>
<vectornator:setting key="SnapToPoints" value="0"/>
<vectornator:setting key="OutlineMode" value="0"/>
<vectornator:setting key="CMYKEnabledKey" value="0"/>
<vectornator:setting key="RulersVisible" value="1"/>
<vectornator:setting key="SnapToEdges" value="0"/>
<vectornator:setting key="GuidesVisible" value="1"/>
<vectornator:setting key="DisplayWhiteBackground" value="0"/>
<vectornator:setting key="doHistoryDisabled" value="0"/>
<vectornator:setting key="SnapToGuides" value="1"/>
<vectornator:setting key="TimeLapseWatermarkDisabled" value="0"/>
<vectornator:setting key="Units" value="Pixels"/>
<vectornator:setting key="DynamicGuides" value="0"/>
<vectornator:setting key="IsolateActiveLayer" value="0"/>
<vectornator:setting key="SnapToGrid" value="0"/>
</metadata>
<defs/>
<g id="Ebene 1" vectornator:layerName="Ebene 1" visibility="hidden">
<g opacity="1">
<path stroke="#000000" stroke-width="30" d="M604.791+148.509C604.791+146.351+564.174+156.524+551.526+166.27C529.112+183.542+507.402+207.911+500.35+237.313C492.055+271.901+502.29+304.155+513.928+336.108C522.196+358.812+530.608+381.668+542.127+402.711C572.209+457.664+628.74+504.021+686.255+521.487C696.436+524.578+707.006+526.643+717.588+527.037C727.039+527.39+736.7+526.493+745.787+523.707C755.063+520.863+764.174+516.543+771.897+510.386C779.784+504.099+786.234+495.767+791.741+487.075C797.829+477.468+802.572+466.854+806.363+455.994C815.182+430.726+818.501+403.011+817.851+376.07C817.492+361.2+817.212+346.059+813.673+331.668C809.129+313.187+802.73+294.98+793.83+278.385C782.726+257.681+768.988+238.522+754.142+220.662C746.594+211.581+728.251+180.807+698.692+163.371C661.861+141.645+613.114+133.583+610.024+132.147" fill="none" stroke-linecap="round" opacity="1" stroke-linejoin="round"/>
<path stroke="#000000" stroke-width="30" d="M497.974+174.051C488.355+193.396+479.779+213.256+470.016+232.527C451.015+270.034+308.758+518.822+278.789+562.017C256.126+594.682+233.192+627.157+210.574+659.852C175.661+710.32+144.011+762.9+98.7449+804.918" fill="none" stroke-linecap="round" opacity="1" stroke-linejoin="round"/>
<path stroke="#000000" stroke-width="30" d="M731.531+546.162C728.131+549.56+681.316+575.488+677.449+577.987C651.653+594.659+625.217+609.744+598.917+625.139C575.188+639.029+420.443+738.239+366.215+770.798C340.038+786.515+169.198+891.485+163.418+892.759" fill="none" stroke-linecap="round" opacity="1" stroke-linejoin="round"/>
<path stroke="#000000" stroke-width="30" d="M134.34+845.4C133.562+845.4+466.116+548.401+484.684+530.367C513.375+502.502+540.957+473.191+569.281+444.893C586.688+427.502+751.999+260.624+767.719+246.194C791.04+224.787+812.568+201.355+835.606+179.59C847.9+167.975+862.055+159.67+875.294+149.619C877.165+148.198+884.693+142.978+884.693+140.738C884.693+139.461+883.053+141.372+880.516+144.069" fill="none" stroke-linecap="round" opacity="1" stroke-linejoin="round"/>
<path stroke="#000000" stroke-width="30" d="M813.346+134.195C820.288+133.628+827.276+134.469+834.234+134.195C852.441+133.479+865.256+133.23+882.242+125.628C887.078+123.464+910.476+109.774+910.476+109.774C910.476+109.774+895.044+134.585+893.766+139.746C887.809+163.803+882.994+184.894+880.13+209.246" fill="none" stroke-linecap="round" opacity="1" stroke-linejoin="round"/>
</g>
</g>
<g id="Ebene 3" vectornator:layerName="Ebene 3" visibility="hidden">
<path stroke="#000000" stroke-width="30" d="M122.517+457.142C144.308+449.878+163.992+426.091+176.73+408.635C211.284+361.284+222.458+304.54+224.286+246.945C224.588+237.439+225.103+227.888+224.286+218.412C222.41+196.648+216.85+170.112+202.41+152.785C179.453+125.236+150.146+140.723+126.321+157.54C118.294+163.206+97.0149+195.369+95.4784+225.178C93.9967+253.92+112.007+280.205+117.761+292.599C132.728+324.835+152.382+357.579+180.535+380.102C208.046+402.111+257.633+415.993+292.767+411.488C307.499+409.6+317.39+404.264+329.86+396.271C348.175+384.53+365.539+367.734+376.465+348.715C385.734+332.579+406.176+247.5+438.287+206.998C453.338+188.016+472.559+162.913+493.857+148.849C518.002+132.906+543.839+129.193+551.47+129.007C564.661+128.685+581.068+132.532+593.319+136.616C614.496+143.675+635.737+154.203+655.142+165.149C680.938+179.701+701.705+198.845+719.818+222.216C741.119+249.701+764.929+282.243+774.032+316.377C780.726+341.481+780.19+366.633+773.08+391.515C768.38+407.966+761.512+424.874+750.254+438.12C731.824+459.802+703.22+469.865+676.067+475.213C631.521+483.987+593.82+478.76+554.324+456.191C514.831+433.624+473.899+388.53+488.697+339.204C495.008+318.166+511.853+297.676+527.692+283.088C552.484+260.254+579.017+256.719+611.391+257.407C621.537+257.623+641.886+259.489+670.658+272.567C699.429+285.645+717+302.68+726.476+309.719C748.6+326.154+820.933+387.132+837.756+398.173C864.191+415.52+892.814+424.804+924.308+424.804C928.112+424.804+948.444+425.038+949.988+421.951" fill="none" stroke-linecap="round" opacity="1" stroke-linejoin="round"/>
<path stroke="#000000" stroke-width="30" d="M907.188+367.737C913.407+370.847+916.813+377.778+921.455+382.955C930.742+393.314+942.249+407.112+952.842+416.244C958.084+420.763+979.187+429.845+977.571+431.462C975.541+433.492+950.952+440.728+942.379+445.729C926.201+455.166+910.758+465.878+895.775+477.115" fill="none" stroke-linecap="round" opacity="1" stroke-linejoin="round"/>
<path stroke="#000000" stroke-width="30" d="M86.3743+751.988C93.9319+749.663+102.127+749.666+110.073+749.135C126.89+748.01+143.753+747.516+160.561+746.281C221.774+741.787+282.62+735.313+343.968+732.015C400.771+728.96+457.223+722.954+513.98+719.65C588.653+715.303+663.816+715.127+738.603+715.846C790.798+716.348+843.035+716.822+895.22+717.748C903.125+717.888+911.014+718.496+918.918+718.699C927.121+718.909+936.599+721.249+940.556+713.943" fill="none" stroke-linecap="round" opacity="1" stroke-linejoin="round"/>
<path stroke="#000000" stroke-width="30" d="M892.26+668.409C900.089+671.295+900.706+671.802+903.463+673.575C908.693+676.94+913.599+680.951+918.918+684.129C927.351+689.168+935.974+693.799+944.678+698.201C955.228+703.538+979.711+714.382+979.711+715.791C979.711+718.109+917.291+754.362+886.964+776.326" fill="none" stroke-linecap="round" opacity="1" stroke-linejoin="round"/>
</g>
<g id="Ebene 4" vectornator:layerName="Ebene 4" visibility="hidden">
<g opacity="1">
<g opacity="1">
<path stroke="#000000" stroke-width="30" d="M413.968+319.253C426.571+313.748+448.483+303.115+459.683+292.933C471.3+282.373+480.465+266.223+486.198+250.821C504.972+200.378+490.543+148.137+454.198+113.959C443.657+104.047+432.541+94.6471+420.369+87.6391C405.533+79.0977+389.917+71.8537+373.739+67.6361C357.324+63.3563+340.278+61.8457+323.453+62.3721" fill="none" stroke-linecap="round" opacity="1" stroke-linejoin="round"/>
<path stroke="#000000" stroke-width="30" d="M289.624+70.2681C301.788+56.6872+280.801+59.8086+276.824+60.2666C270.991+60.9382+265.245+62.3874+259.452+63.4249C234.104+67.9652+208.572+71.5726+183.566+78.164C167.291+82.4538+151.806+90.4769+136.936+99.2198C96.0862+123.239+67.26+162.876+81.1643+218.185C85.1138+233.895+90.3551+242.195+99.4502+255.033C127.073+294.021+156.251+305.191+197.28+318.2C211.201+322.614+242.38+324.892+272.614+326.061" fill="none" stroke-linecap="round" opacity="1" stroke-linejoin="round"/>
<path stroke="#000000" stroke-width="30" d="M373.557+291.197C373.557+290.155+373.557+287.031+373.557+288.072C373.557+294.886+374.628+301.654+375.568+308.38C376.512+315.14+377.032+321.987+378.249+328.688C381.698+347.693+387.161+365.884+394.333+383.363C416.08+436.356+450.877+469.895+488.159+507.552M302.774+283.627C302.774+282.541+302.774+279.286+302.774+280.371C302.774+287.471+304.495+294.524+306.004+301.532C307.521+308.576+308.357+315.711+310.311+322.693C315.852+342.496+324.627+361.451+336.15+379.664C371.085+434.883+426.985+469.831+486.877+509.07" fill="none" stroke-linecap="round" opacity="1" stroke-linejoin="round"/>
</g>
<g opacity="1">
<path stroke="#000000" stroke-width="30" d="M739.429+786.956C729.748+782.172+712.917+772.93+704.314+764.081C695.391+754.904+688.35+740.868+683.947+727.482C669.526+683.642+680.609+638.239+708.527+608.534C716.624+599.92+725.163+591.75+734.512+585.66C745.908+578.236+757.904+571.94+770.33+568.275C782.939+564.555+796.032+563.243+808.956+563.7" fill="none" stroke-linecap="round" opacity="1" stroke-linejoin="round"/>
<path stroke="#000000" stroke-width="30" d="M834.941+570.562C825.597+558.759+841.718+561.472+844.773+561.87C849.254+562.454+853.668+563.713+858.117+564.615C877.588+568.561+897.2+571.696+916.408+577.425C928.909+581.153+940.804+588.126+952.225+595.724C983.604+616.6+1005.75+651.049+995.066+699.118C992.032+712.771+988.006+719.985+981.02+731.142C959.802+765.027+937.389+774.735+905.874+786.041C895.18+789.877+871.231+791.857+848.007+792.873" fill="none" stroke-linecap="round" opacity="1" stroke-linejoin="round"/>
<path stroke="#000000" stroke-width="30" d="M745.787+762.89C745.787+761.955+745.787+759.15+745.787+760.085C745.787+766.203+744.591+772.28+743.541+778.319C742.487+784.388+741.906+790.537+740.547+796.553C736.695+813.617+730.594+829.951+722.584+845.645C698.296+893.227+659.433+923.341+617.795+957.153M824.84+756.093C824.84+755.119+824.84+752.196+824.84+753.17C824.84+759.545+822.918+765.877+821.233+772.17C819.539+778.494+818.605+784.901+816.423+791.17C810.234+808.951+800.434+825.971+787.565+842.324C748.548+891.904+686.117+923.284+619.227+958.516" fill="none" stroke-linecap="round" opacity="1" stroke-linejoin="round"/>
</g>
<g opacity="1">
<path stroke="#000000" stroke-width="30" d="M389.615+688.025C403.232+684.02+426.906+676.282+439.007+668.873C451.558+661.189+461.461+649.437+467.655+638.23C487.94+601.524+472.35+563.51+433.08+538.639C421.692+531.426+409.681+524.586+396.53+519.487C380.501+513.271+363.628+508+346.15+504.931C328.414+501.817+309.997+500.718+291.818+501.101" fill="none" stroke-linecap="round" opacity="1" stroke-linejoin="round"/>
<path stroke="#000000" stroke-width="30" d="M255.268+506.846C268.411+496.964+245.736+499.235+241.438+499.568C235.136+500.057+228.928+501.112+222.669+501.867C195.282+505.171+167.696+507.796+140.678+512.592C123.095+515.713+106.363+521.552+90.2981+527.914C46.1619+545.392+15.0169+574.235+30.0396+614.481C34.3068+625.913+39.9698+631.952+49.7965+641.294C79.641+669.665+111.167+677.793+155.496+687.259C170.537+690.471+204.224+692.128+236.89+692.979" fill="none" stroke-linecap="round" opacity="1" stroke-linejoin="round"/>
<path stroke="#000000" stroke-width="30" d="M345.953+667.609C345.953+666.852+345.953+664.578+345.953+665.336C345.953+670.294+347.111+675.219+348.126+680.113C349.146+685.032+349.708+690.015+351.022+694.891C354.749+708.72+360.651+721.957+368.4+734.676C391.896+773.238+429.492+797.643+469.774+825.045M269.476+662.101C269.476+661.311+269.476+658.942+269.476+659.732C269.476+664.899+271.335+670.03+272.966+675.13C274.605+680.256+275.508+685.447+277.619+690.528C283.606+704.939+293.087+718.732+305.536+731.984C343.282+772.166+403.678+797.597+468.388+826.15" fill="none" stroke-linecap="round" opacity="1" stroke-linejoin="round"/>
</g>
<g opacity="1">
<path stroke="#000000" stroke-width="30" d="M595.554+482.385C581.684+475.711+557.569+462.82+545.242+450.477C532.458+437.675+522.371+418.097+516.062+399.425C495.399+338.273+511.279+274.941+551.28+233.506C562.88+221.489+575.114+210.094+588.511+201.598C604.838+191.244+622.025+182.462+639.828+177.349C657.895+172.16+676.655+170.329+695.171+170.967" fill="none" stroke-linecap="round" opacity="1" stroke-linejoin="round"/>
<path stroke="#000000" stroke-width="30" d="M732.402+180.539C719.015+164.075+742.112+167.859+746.489+168.415C752.909+169.229+759.233+170.986+765.608+172.243C793.505+177.748+821.605+182.121+849.125+190.112C867.036+195.312+884.079+205.039+900.443+215.638C945.401+244.757+977.126+292.809+961.824+359.86C957.477+378.906+951.709+388.967+941.699+404.53C911.299+451.797+879.186+465.337+834.032+481.108C818.711+486.459+784.397+489.221+751.122+490.639" fill="none" stroke-linecap="round" opacity="1" stroke-linejoin="round"/>
<path stroke="#000000" stroke-width="30" d="M640.029+448.372C640.029+447.109+640.029+443.322+640.029+444.584C640.029+452.845+638.85+461.05+637.816+469.204C636.777+477.399+636.204+485.7+634.866+493.823C631.069+516.863+625.058+538.916+617.164+560.105C593.231+624.349+554.934+665.009+513.903+710.661M717.93+439.195C717.93+437.879+717.93+433.933+717.93+435.248C717.93+443.856+716.036+452.405+714.375+460.901C712.705+469.441+711.786+478.09+709.635+486.555C703.536+510.563+693.879+533.542+681.198+555.621C642.75+622.564+581.229+664.932+515.314+712.501" fill="none" stroke-linecap="round" opacity="1" stroke-linejoin="round"/>
</g>
</g>
</g>
<g id="Ebene 5" vectornator:layerName="Ebene 5" visibility="hidden">
<g opacity="1">
<path stroke="#000000" stroke-width="30" d="M255.918+187.62C255.918+180.82+244.671+184.451+241.165+185.407C238.389+186.164+235.464+186.789+233.051+188.357C220.245+196.681+214.552+225.859+221.249+239.254C223.263+243.282+229.932+249.865+233.789+251.794C249.67+259.734+274.178+251.971+282.473+236.303C287.46+226.883+288.058+216.178+284.686+206.06C283.538+202.616+282.089+199.038+279.522+196.471C277.65+194.599+274.605+194.504+272.146+193.521" fill="none" stroke-linecap="round" opacity="1" stroke-linejoin="round"/>
<path stroke="#000000" stroke-width="30" d="M768.942+598.319C764.063+595.761+754.519+595.614+749.762+596.373C743.878+597.312+738.029+598.772+732.439+600.914C723.643+604.284+714.342+609.266+708.928+617.781C705.258+623.553+704.597+630.595+704.597+637.244C704.597+650.964+712.515+662.176+723.777+669.033C739.893+678.845+765.385+680.928+780.697+668.384C784.261+665.464+787.745+662.129+789.977+658.004C792.2+653.897+793.689+649.103+793.689+644.38C793.689+640.685+791.553+637.305+789.977+634C789.455+632.906+788.327+632.27+787.502+631.405" fill="none" stroke-linecap="round" opacity="1" stroke-linejoin="round"/>
<path stroke="#000000" stroke-width="30" d="M259.606+724.618C259.852+724.126+260.88+723.262+260.344+723.142C257.943+722.609+255.374+722.641+252.967+723.142C249.389+723.888+245.95+725.279+242.64+726.83C235.936+729.973+224.901+736.518+219.036+741.583C204.326+754.287+202.584+783.801+217.561+796.906C231.442+809.052+252.033+814.03+269.933+808.708C283.044+804.81+293.527+793.999+296.488+780.678C297.503+776.111+298.24+771.229+297.225+766.663C296.199+762.046+293.701+757.682+290.587+754.123C284.524+747.194+275.954+742.75+267.72+738.633" fill="none" stroke-linecap="round" opacity="1" stroke-linejoin="round"/>
<path stroke="#000000" stroke-width="30" d="M748.658+172.867C746.513+171.095+745.461+167.619+742.757+166.966C737.732+165.753+732.365+166.854+727.266+167.703C711.907+170.263+708.752+186.94+706.613+199.422C705.256+207.337+702.369+217.001+710.301+222.288C718.627+227.839+739.832+235.465+749.395+230.402C764.306+222.509+769.937+193.982+759.722+180.981C756.897+177.385+752.184+175.78+748.658+172.867Z" fill="none" stroke-linecap="round" opacity="1" stroke-linejoin="round"/>
<path stroke="#000000" stroke-width="30" d="M168.139+457.225C167.399+455.991+167.963+453.788+166.664+453.168C162.089+450.985+156.971+449.786+151.911+449.48C144.44+449.027+136.354+454.822+131.258+459.069C127.251+462.408+123.496+466.097+120.193+470.134C116.825+474.25+114.078+478.85+111.341+483.411C103.516+496.453+92.0202+521.398+106.916+534.308C115.681+541.904+135.71+538.705+145.273+535.783C154.497+532.964+164.149+529.956+170.352+521.768C173.806+517.209+176.53+511.87+177.729+506.278C179.535+497.849+180.442+488.991+179.204+480.46C178.174+473.366+174.172+467.017+171.09+460.544C170.453+459.208+168.901+458.494+168.139+457.225Z" fill="none" stroke-linecap="round" opacity="1" stroke-linejoin="round"/>
<path stroke="#000000" stroke-width="30" d="M792.759+850.625C793.321+850.625+794.352+851.331+794.444+850.625C794.814+847.792+795.252+844.319+793.882+842.037C792.404+839.573+789.516+839.149+787.143+838.458C770.403+833.581+750.117+836.942+737.724+853.488C732.67+860.235+731.168+871.273+733.793+879.97C736.105+887.632+740.635+894.002+745.024+900.01C752.408+910.118+761.312+917.866+772.542+918.619C776.299+918.871+780.258+918.895+783.774+917.188C788.335+914.973+792.44+911.242+796.129+907.168C800.934+901.86+805.541+896.037+809.045+889.275C812.188+883.21+815.542+876.495+815.784+869.234C815.955+864.116+812.04+860.168+810.168+855.635" fill="none" stroke-linecap="round" opacity="1" stroke-linejoin="round"/>
<path stroke="#000000" stroke-width="30" d="M518.512+332.97C509.341+334.28+500.008+327.728+490.927+329.454C478.223+331.87+466.604+338.389+456.545+345.626C451.376+349.345+448.895+355.476+446.95+361.095C445.081+366.495+445.202+372.327+445.351+377.97C445.603+387.487+448.021+393.848+453.347+401.876C456.686+406.91+459.847+409.795+466.14+411.72C469.744+412.822+473.567+414.363+477.334+413.829C482.278+413.128+487.125+411.07+490.927+408.204C496.679+403.868+501.373+398.422+505.319+392.735C511.031+384.503+516.202+375.856+519.712+366.72C522.924+358.358+525.622+349.526+525.309+340.704C525.193+337.448+522.169+332.448+518.512+332.97Z" fill="none" stroke-linecap="round" opacity="1" stroke-linejoin="round"/>
<path stroke="#000000" stroke-width="30" d="M917.494+339.661C908.323+340.971+898.99+334.419+889.909+336.146C877.205+338.561+865.586+345.08+855.527+352.318C850.357+356.037+847.877+362.167+845.932+367.786C844.063+373.186+844.183+379.018+844.333+384.661C844.584+394.178+847.003+400.54+852.328+408.568C855.668+413.601+858.829+416.487+865.122+418.411C868.726+419.514+872.548+421.055+876.316+420.521C881.259+419.819+886.107+417.761+889.909+414.896C895.661+410.56+900.355+405.114+904.301+399.427C910.013+391.195+915.183+382.548+918.693+373.411C921.906+365.05+924.604+356.217+924.29+347.396C924.175+344.139+921.151+339.139+917.494+339.661Z" fill="none" stroke-linecap="round" opacity="1" stroke-linejoin="round"/>
<path stroke="#000000" stroke-width="30" d="M186.003+263.034C186.003+263.034+154.262+286.631+143.236+318.845C132.21+351.059+141.899+391.892+141.899+391.892" fill="none" stroke-linecap="round" opacity="1" stroke-linejoin="round"/>
<path stroke="#000000" stroke-width="30" d="M131.229+583.44C131.229+583.44+125.551+627.6+141.16+659.747C156.768+691.895+193.664+712.029+193.664+712.029" fill="none" stroke-linecap="round" opacity="1" stroke-linejoin="round"/>
<path stroke="#000000" stroke-width="30" d="M301.927+155.702C301.927+155.702+397.194+106.977+492.895+105.301C588.596+103.625+684.73+148.999+684.73+148.999" fill="none" stroke-linecap="round" opacity="1" stroke-linejoin="round"/>
<path stroke="#000000" stroke-width="30" d="M813.533+687.05C813.533+687.05+837.005+720.484+841.187+752.687C845.369+784.89+830.262+815.861+830.262+815.861" fill="none" stroke-linecap="round" opacity="1" stroke-linejoin="round"/>
<path stroke="#000000" stroke-width="30" d="M205.777+540.813C205.777+540.813+400.374+571.695+529.264+639.063C658.154+706.431+721.337+810.286+721.337+810.286" fill="none" stroke-linecap="round" opacity="1" stroke-linejoin="round"/>
<path stroke="#000000" stroke-width="30" d="M328.398+812.516C328.398+812.516+420.955+879.946+515.054+897.302C609.154+914.658+693.922+892.814+693.922+892.814" fill="none" stroke-linecap="round" opacity="1" stroke-linejoin="round"/>
<path stroke="#000000" stroke-width="30" d="M295.777+273.849C295.777+273.849+317.574+299.629+346.074+316.776C374.574+333.923+409.777+342.437+409.777+342.437" fill="none" stroke-linecap="round" opacity="1" stroke-linejoin="round"/>
<path stroke="#000000" stroke-width="30" d="M861.427+461.702C861.427+461.702+864.974+499.444+855.632+528.077C846.29+556.71+824.058+576.235+824.058+576.235" fill="none" stroke-linecap="round" opacity="1" stroke-linejoin="round"/>
<path stroke="#000000" stroke-width="30" d="M548.008+406.281C548.008+406.281+616.887+438.12+682.094+437.696C747.3+437.271+808.833+404.583+808.833+404.583" fill="none" stroke-linecap="round" opacity="1" stroke-linejoin="round"/>
<path stroke="#000000" stroke-width="30" d="M507.563+451.243C507.563+451.243+525.313+501.454+566.603+538.45C607.893+575.445+672.723+599.224+672.723+599.224" fill="none" stroke-linecap="round" opacity="1" stroke-linejoin="round"/>
</g>
</g>
<g id="Ebene 6" vectornator:layerName="Ebene 6" visibility="hidden">
<g opacity="1">
<path stroke="#000000" stroke-width="30" d="M306.598+143.771C312.145+88.3099+133.419+163.839+128.061+244.198C118.639+385.53+330.316+424.958+383.911+537.509C423.18+619.974+303.602+664.956+344.059+743.943C371.089+796.715+447.967+805.305+500.279+794.156C638.978+764.597+883.785+410.112+748.956+275.283C681.706+208.034+542.335+340.125+481.947+302.382C422.425+265.181+519.744+162.775+493.903+111.093C470.814+64.9155+391.995+128.401+379.129+154.133" fill="none" stroke-linecap="round" opacity="1" stroke-linejoin="round" stroke-dasharray="50"/>
<path stroke="#000000" stroke-width="30" d="M660.484+834.805C729.015+789.118+603.644+677.519+588.751+628.372C528.572+429.782+351.542+413.704+183.854+512.004C-31.0706+637.994+232.432+1074.92+537.74+910.524" fill="none" stroke-linecap="round" opacity="1" stroke-linejoin="round" stroke-dasharray="50"/>
<path stroke="#000000" stroke-width="30" d="M752.144+80.8052C595.783+28.6849+557.877+524.775+705.119+577.361C870.93+636.58+855.953+438.139+873.294+339.046C886.116+265.776+981.285+201.265+849.383+165.291" fill="none" stroke-linecap="round" opacity="1" stroke-linejoin="round" stroke-dasharray="20,50,20,50"/>
</g>
</g>
<g id="Ebene 2" vectornator:layerName="Ebene 2" visibility="hidden">
<path stroke="#000000" stroke-width="30" d="M191.985+401.374C191.257+399.918+177.454+539.168+185.608+573.534C211.506+682.673+318.567+851.444+453.414+774.389C703.352+631.567+353.758+233.07+233.431+377.462" fill="none" stroke-linecap="round" opacity="1" stroke-linejoin="round"/>
<path stroke="#000000" stroke-width="30" d="M465.37+241.966C465.37+234.545+590.177+325.898+602.461+337.61C677.77+409.417+717.503+528.472+707.67+631.718" fill="none" stroke-linecap="round" opacity="1" stroke-linejoin="round"/>
<path stroke="#000000" stroke-width="30" d="M698.902+634.109C729.355+634.109+650.89+671.843+624.778+687.511C577.424+715.923+523.385+732.494+478.122+764.824" fill="none" stroke-linecap="round" opacity="1" stroke-linejoin="round"/>
<path stroke="#000000" stroke-width="30" d="M442.255+242.763C472.687+232.619+386.73+275.003+360.16+292.976C313.811+324.33+246.394+348.558+207.129+387.824" fill="none" stroke-linecap="round" opacity="1" stroke-linejoin="round"/>
<path stroke="#000000" stroke-width="30" d="M461.384+233.198C532.866+197.457+573.478+119.913+672.6+131.177C965.247+164.432+924.567+506.511+734.769+640.486" fill="none" stroke-linecap="round" opacity="1" stroke-linejoin="round"/>
<path stroke="#000000" stroke-width="30" d="M791.359+158.276C806.301+158.276+831.87+124.586+846.355+130.38C931.35+164.378+950.541+233.424+890.192+293.773" fill="none" stroke-linecap="round" opacity="1" stroke-linejoin="round"/>
<path stroke="#000000" stroke-width="30" d="M770.636+376.665C734.168+352.637+668.399+432.205+755.492+453.978C815.368+468.947+825.726+412.964+770.636+376.665Z" fill="none" stroke-linecap="round" opacity="1" stroke-linejoin="round"/>
<path stroke="#000000" stroke-width="30" d="M735.432+436.402C764.266+427.755+826.716+542.386+832.983+558.538C892.673+712.365+722.968+884.63+510.087+770.631" fill="none" stroke-linecap="round" opacity="1" stroke-linejoin="round"/>
<path stroke="#000000" stroke-width="30" d="M754.355+416.318C767.73+407.124+784.56+428.259+793.596+435.376C878.265+502.064+940.044+627.821+883.168+723.436C809.317+847.586+640.825+776.365+538.529+735.164" fill="none" stroke-linecap="round" opacity="1" stroke-linejoin="round"/>
<path stroke="#000000" stroke-width="30" d="M235.822+273.847C224.333+250.87+113.585+243.324+89.9636+240.372" fill="none" stroke-linecap="round" opacity="1" stroke-linejoin="round"/>
<path stroke="#000000" stroke-width="30" d="M297.991+226.822C297.991+181.587+223.075+96.91+192.782+66.6168" fill="none" stroke-linecap="round" opacity="1" stroke-linejoin="round"/>
<path stroke="#000000" stroke-width="30" d="M432.691+134.365C437.569+100.221+440.714+63.6508+443.85+29.1559" fill="none" stroke-linecap="round" opacity="1" stroke-linejoin="round"/>
<path stroke="#000000" stroke-width="30" d="M376.898+492.236C376.898+489.446+347.168+518.881+345.814+532.088C342.033+568.95+380.665+611.907+419.938+603.822C510.066+585.266+432.819+493.087+387.26+473.904" fill="none" stroke-linecap="round" opacity="1" stroke-linejoin="round"/>
<path stroke="#000000" stroke-width="30" d="M469.355+304.932C498.826+290.196+416.259+345.299+385.666+357.536" fill="none" stroke-linecap="round" opacity="1" stroke-linejoin="round"/>
<path stroke="#000000" stroke-width="30" d="M533.915+389.418C500.842+407.792+529.146+392.04+449.429+437.24" fill="none" stroke-linecap="round" opacity="1" stroke-linejoin="round"/>
<path stroke="#000000" stroke-width="30" d="M601.663+459.558C571.886+479.409+600.073+460.737+511.598+506.583" fill="none" stroke-linecap="round" opacity="1" stroke-linejoin="round"/>
<path stroke="#000000" stroke-width="30" d="M633.545+543.247C599.189+550.882+628.501+543.624+553.841+586.287" fill="none" stroke-linecap="round" opacity="1" stroke-linejoin="round"/>
<path stroke="#000000" stroke-width="30" d="M648.689+622.951C614.909+635.618+644.507+624.511+560.217+656.427" fill="none" stroke-linecap="round" opacity="1" stroke-linejoin="round"/>
<path stroke="#000000" stroke-width="30" d="M757.883+213.272C785.519+199.454+812.443+286.751+808.097+304.135" fill="none" stroke-linecap="round" opacity="1" stroke-linejoin="round"/>
<path stroke="#000000" stroke-width="30" d="M397.621+536.871C397.621+520.205+382.62+553.196+388.854+558.391C397.917+565.944+435.722+563.173+423.923+563.173" fill="none" stroke-linecap="round" opacity="1" stroke-linejoin="round"/>
<path stroke="#000000" stroke-width="30" d="M227.055+414.923C255.973+414.923+330.369+443.513+340.234+473.107" fill="none" stroke-linecap="round" opacity="1" stroke-linejoin="round"/>
<path stroke="#000000" stroke-width="30" d="M401.606+740.116C413.853+719.704+426.343+629.149+406.389+614.183" fill="none" stroke-linecap="round" opacity="1" stroke-linejoin="round"/>
<path stroke="#000000" stroke-width="30" d="M243.792+609.401C276.516+587.585+285.855+567.403+330.67+564.767" fill="none" stroke-linecap="round" opacity="1" stroke-linejoin="round"/>
</g>
<g id="Ebene 7" vectornator:layerName="Ebene 7" visibility="hidden">
<g opacity="1">
<path stroke="#000000" stroke-width="30" d="M363.751+534.716L122.247+861.502L515.188+735.57" fill="none" stroke-linecap="round" opacity="1" stroke-linejoin="round"/>
<path stroke="#000000" stroke-width="30" d="M366.142+535.513C350.022+530.14+356.97+568.74+357.374+585.726C358.977+653.063+453.216+719.695+512.797+739.555" fill="none" stroke-linecap="round" opacity="1" stroke-linejoin="round"/>
<path stroke="#000000" stroke-width="30" d="M210.719+753.105C210.719+751.717+272.846+778.776+264.12+813.68" fill="none" stroke-linecap="round" opacity="1" stroke-linejoin="round"/>
<path stroke="#000000" stroke-width="30" d="M161.302+824.041C161.302+814.727+193.722+830.589+189.199+822.447C177.733+801.81+222.14+808.009+209.922+793.754C182.542+761.81+249.058+796.104+233.036+804.115" fill="none" stroke-linecap="round" opacity="1" stroke-linejoin="round"/>
<path stroke="#000000" stroke-width="30" d="M209.125+822.447L206.734+822.447L193.981+823.244L192.387+822.447L194.778+823.244L197.966+824.041L201.951+824.838L205.937+824.838L209.922+824.838L214.704+824.041L218.689+822.447L220.283+820.056L221.08+816.868L218.689+815.274L215.501+815.274L211.516+815.274L207.531+816.071L204.342+816.071L204.342+816.071" fill="none" stroke-linecap="round" opacity="1" stroke-linejoin="round"/>
<path stroke="#000000" stroke-width="30" d="M524.753+736.367C551.99+736.367+947.432+309.801+989.525+263.153" fill="none" stroke-linecap="round" opacity="1" stroke-linejoin="round"/>
<path stroke="#000000" stroke-width="30" d="M365.68+548.687C518.789+491.315+679.62+275.234+806.649+174.434" fill="none" stroke-linecap="round" opacity="1" stroke-linejoin="round"/>
<path stroke="#000000" stroke-width="30" d="M363.475+512C386.025+503.544+764.954+143.999+768.371+132.609" fill="none" stroke-linecap="round" opacity="1" stroke-linejoin="round"/>
<path stroke="#000000" stroke-width="30" d="M901.753+227.058C746.549+374.072+596.428+533.395+428.903+667.667" fill="none" stroke-linecap="round" opacity="1" stroke-linejoin="round"/>
</g>
</g>
<g id="Ebene 8" vectornator:layerName="Ebene 8">
<g opacity="1">
<path stroke="#000000" stroke-width="30" d="M454.242+285.409C453.424+271.99+430.132+336.35+430.688+348.495C432.883+396.451+443.503+454.518+460.168+500.184C501.65+613.855+649.658+799.892+763.483+690.359C914.677+544.866+635.317+226.511+477.585+269.961" fill="none" stroke-linecap="round" opacity="1" stroke-linejoin="round"/>
<path stroke="#000000" stroke-width="30" d="M419.046+322.068C297.725+443.164+169.408+632.442+91.8138+787.344" fill="none" stroke-linecap="round" opacity="1" stroke-linejoin="round"/>
<path stroke="#000000" stroke-width="30" d="M702.201+731.351C570.491+731.351+307.954+844.787+182.637+907.329" fill="none" stroke-linecap="round" opacity="1" stroke-linejoin="round"/>
<path stroke="#000000" stroke-width="30" d="M133.219+858.002C142.936+814.825+690.988+153.805+710.631+153.805" fill="none" stroke-linecap="round" opacity="1" stroke-linejoin="round" stroke-dasharray="50"/>
<path stroke="#000000" stroke-width="30" d="M133.799+863.528C145.879+824.771+827.244+231.42+851.664+231.42" fill="none" stroke-linecap="round" opacity="1" stroke-linejoin="round" stroke-dasharray="50"/>
<path stroke="#000000" stroke-width="30" d="M131.503+877.184C144.326+850.475+867.555+441.575+893.476+441.575" fill="none" stroke-linecap="round" opacity="1" stroke-linejoin="round" stroke-dasharray="50"/>
<path stroke="#000000" stroke-width="30" d="M719.62+215.67C766.807+145.019+723.401+99.7403+659.062+122.676" fill="none" stroke-linecap="round" opacity="1" stroke-linejoin="round"/>
<path stroke="#000000" stroke-width="30" d="M832.001+319.706C890.425+232.233+861.553+189.556+779.595+225.55" fill="none" stroke-linecap="round" opacity="1" stroke-linejoin="round"/>
<path stroke="#000000" stroke-width="30" d="M859.369+495.232C911.749+495.232+933.055+407.822+825.596+393.52" fill="none" stroke-linecap="round" opacity="1" stroke-linejoin="round"/>
</g>
</g>
</svg>
