<?xml version="1.0" encoding="UTF-8"?>
<svg width="37px" height="37px" viewBox="0 0 37 37" version="1.1" xmlns="http://www.w3.org/2000/svg" xmlns:xlink="http://www.w3.org/1999/xlink">
    <title>Combined Shape</title>
    <g id="Webseite" stroke="none" stroke-width="1" fill="none" fill-rule="evenodd">
        <g id="Artboard" transform="translate(-36.000000, -45.000000)" fill="#444444">
            <path d="M54.5,45 C64.7172679,45 73,53.2827321 73,63.5 C73,73.7172679 64.7172679,82 54.5,82 C44.2827321,82 36,73.7172679 36,63.5 C36,53.2827321 44.2827321,45 54.5,45 Z M49.1659609,59 L44,59 L44,68 L49.2142409,68 L49.2142409,66.8310547 L45.2432102,66.8310547 L45.2432102,64.0756836 L48.8963975,64.0756836 L48.8963975,62.9111328 L45.2432102,62.9111328 L45.2432102,60.1689453 L49.1659609,60.1689453 L49.1659609,59 Z M60.2462293,59.3999023 L59.5220292,60.1865234 L62.036613,62.9287109 L51.3425911,62.9287109 L51.3425911,64.0712891 L62.036613,64.0712891 L59.5220292,66.8178711 L60.2462293,67.6000977 L64,63.5 L60.2462293,59.3999023 Z" id="Combined-Shape"></path>
        </g>
    </g>
</svg>